<svg xmlns="http://www.w3.org/2000/svg" viewBox="0 0 100 100" width="100" height="100">
  <defs>
    <linearGradient id="logo-gradient" x1="0%" y1="0%" x2="100%" y2="100%">
      <stop offset="0%" stop-color="#3B82F6" />
      <stop offset="50%" stop-color="#8B5CF6" />
      <stop offset="100%" stop-color="#EC4899" />
    </linearGradient>
    <filter id="glow" x="-20%" y="-20%" width="140%" height="140%">
      <feGaussianBlur stdDeviation="3" result="blur" />
      <feComposite in="SourceGraphic" in2="blur" operator="over" />
    </filter>
  </defs>
  <g transform="translate(10, 10)">
    <!-- Cloud base contour -->
    <path d="M 40,25 
             A 15,15 0 0,1 65,30 
             A 12,12 0 0,1 75,45 
             A 10,10 0 0,1 68,60 
             L 20,60 
             A 12,12 0 0,1 12,45 
             A 14,14 0 0,1 30,25 
             A 10,10 0 0,1 40,25 Z" 
          fill="none" 
          stroke="url(#logo-gradient)" 
          stroke-width="4" 
          stroke-linecap="round" 
          stroke-linejoin="round"
          opacity="0.3" />
    
    <!-- Stylized letter K connected to the cloud -->
    <path d="M 30,20 L 30,60" 
          stroke="url(#logo-gradient)" 
          stroke-width="7" 
          stroke-linecap="round" />
    
    <path d="M 52,22 L 32,38 L 52,58" 
          stroke="url(#logo-gradient)" 
          stroke-width="7" 
          stroke-linecap="round" 
          stroke-linejoin="round"
          filter="url(#glow)" />
          
    <!-- Dot highlight -->
    <circle cx="52" cy="22" r="4.5" fill="#3B82F6" />
    <circle cx="52" cy="58" r="4.5" fill="#EC4899" />
  </g>
</svg>
